<svg width="34" height="38" viewBox="0 0 34 38" fill="none" xmlns="http://www.w3.org/2000/svg">
<path fill-rule="evenodd" clip-rule="evenodd" d="M25.0405 27.2384L24.3001 26.0448L22.628 23.3454C23.5999 22.4621 24.3399 21.3798 24.8086 20.1938C25.4732 18.5158 25.5976 16.6293 25.0771 14.8038C24.5548 12.9738 23.4512 11.4274 21.9968 10.3391C20.542 9.25046 18.7395 8.6186 16.8223 8.6186C14.9042 8.6186 13.1017 9.25046 11.6473 10.3391C10.1934 11.4274 9.08844 12.9738 8.5666 14.8038C8.04567 16.6293 8.17053 18.5158 8.83461 20.1938C9.30386 21.3798 10.0434 22.4621 11.0157 23.3454L4.73808 33.4769C4.6704 33.5859 4.57481 33.6646 4.46779 33.7067C4.36077 33.7479 4.23362 33.7537 4.10465 33.718C3.97933 33.6827 3.87689 33.6135 3.80783 33.5244C3.74014 33.4353 3.7008 33.3173 3.7008 33.1834V17.1024H3.69486C3.69532 14.2343 4.65256 11.5319 6.30773 9.33911C7.96061 7.14863 10.3078 5.47377 13.0871 4.65782C15.8733 3.84006 18.7679 3.97756 21.362 4.92196C23.9557 5.86546 26.2461 7.61404 27.8295 10.0198C29.4142 12.4279 30.1034 15.2099 29.9269 17.9391C29.7494 20.6674 28.7067 23.3391 26.8256 25.5237C26.2768 26.1592 25.6799 26.7314 25.0405 27.2384ZM16.8241 30.0453C17.7992 30.0453 18.7985 29.9771 19.7526 29.7618C20.5991 29.5704 21.426 29.2968 22.2214 28.9436L21.4832 27.7526L19.0286 23.7914C18.5534 23.0207 18.7995 22.0157 19.5788 21.5458C20.5813 20.9374 21.3209 20.0346 21.7288 19.0029C22.1372 17.9708 22.2136 16.8102 21.893 15.6858C21.5738 14.565 20.896 13.6174 20.0037 12.9489C19.1118 12.2818 18.0041 11.8946 16.8223 11.8946C15.64 11.8946 14.5319 12.2818 13.64 12.9489C12.7477 13.6174 12.0699 14.565 11.7507 15.6858C11.4296 16.8097 11.5065 17.9712 11.9149 19.0034C12.3229 20.0346 13.0624 20.9374 14.0649 21.5458C14.8443 22.0157 15.0903 23.0207 14.6151 23.7914L13.0203 26.3654L11.6693 28.5451L11.4292 28.9322C13.1177 29.7075 14.9632 30.0883 16.8241 30.0453ZM7.97113 34.5141L7.55905 35.1785C7.10124 35.9175 6.43579 36.4562 5.67155 36.7525C4.90731 37.0478 4.05114 37.0999 3.21189 36.866C2.36944 36.6308 1.6642 36.1428 1.16843 35.4946C0.671743 34.8465 0.388184 34.0441 0.388184 33.1829V17.1024H0.394587C0.395044 13.5003 1.58965 10.1166 3.65415 7.38111C5.72003 4.6438 8.66219 2.54739 12.155 1.52293C15.6414 0.500287 19.2596 0.670804 22.5008 1.85085C25.743 3.0309 28.6125 5.22274 30.5988 8.24048C32.5832 11.2564 33.4476 14.7359 33.2258 18.1436C33.0049 21.5512 31.6969 24.8932 29.3355 27.636C26.9756 30.3773 23.8464 32.1879 20.477 32.9487C19.453 33.1798 18.4075 33.3141 17.3547 33.348C17.2778 33.3458 16.8923 33.3535 16.8241 33.3535C14.3531 33.3557 11.9131 32.8057 9.68666 31.7451L7.97113 34.5141Z" fill="url(#paint0_linear_1267_43)"/>
<defs>
<linearGradient id="paint0_linear_1267_43" x1="19.1431" y1="1.36026" x2="14.2547" y2="35.3268" gradientUnits="userSpaceOnUse">
<stop stop-color="#FF8E38"/>
<stop offset="1" stop-color="#FF4629"/>
</linearGradient>
</defs>
</svg>
